<svg width="55" height="39" viewBox="0 0 55 39" fill="none" xmlns="http://www.w3.org/2000/svg">
<path d="M43.881 17.7517C44.265 17.1915 44.3483 16.4786 44.1033 15.845C43.3854 13.987 41.5648 12.7386 39.5731 12.7386H36.7608V10.221C37.7058 9.88693 38.3848 8.98519 38.3848 7.92724V6.73822C38.3848 6.05262 37.827 5.49476 37.1413 5.49476H34.7633C34.0777 5.49476 33.5199 6.05262 33.5199 6.73822V7.92724C33.5199 8.98519 34.199 9.88693 35.1438 10.221V12.7386H30.0283V6.91824C30.126 5.78183 29.067 4.63484 28.2432 3.87971V0.86489C28.2432 0.418278 27.8813 0.0563965 27.4347 0.0563965C26.9882 0.0563965 26.6262 0.418278 26.6262 0.86489V3.87971C25.8039 4.66858 24.8113 5.60956 24.841 6.91824V12.7386H19.7255V10.221C20.6705 9.88693 21.3495 8.98519 21.3495 7.92724V6.73822C21.3495 6.05262 20.7918 5.49476 20.1061 5.49476H17.728C17.0424 5.49476 16.4845 6.05262 16.4845 6.73822V7.92724C16.4845 8.98519 17.1636 9.88693 18.1085 10.221V12.7386H15.3402C13.3483 12.7386 11.5277 13.987 10.8099 15.845C10.299 17.0485 11.2717 18.6645 12.7308 18.6464H23.0884V20.499C23.0884 21.8098 24.1549 22.8763 25.4657 22.8763H26.6482V33.7075L22.8569 36.7588C21.998 37.3343 22.3571 38.9354 23.5663 38.9432L31.3483 38.939C32.405 38.9652 33.0174 37.4866 32.055 36.7535L28.2652 33.7179V22.8763H29.4476C30.7585 22.8763 31.8249 21.8098 31.8249 20.499V17.8379C31.8249 17.3913 31.463 17.0294 31.0164 17.0294H12.7309C12.5331 16.9854 12.2621 16.9624 12.3183 16.4277C12.7972 15.1883 14.0116 14.3555 15.3403 14.3555H39.5731C40.9017 14.3555 42.1162 15.1883 42.595 16.4277C42.6252 16.6281 42.7016 16.8891 42.1825 17.0294H34.8733C34.4266 17.0294 34.0648 17.3913 34.0648 17.8379C34.0648 18.2845 34.4266 18.6464 34.8733 18.6464H42.1826C42.8618 18.6464 43.4968 18.312 43.881 17.7517ZM35.1369 7.11164H36.7679V7.92714C36.7679 8.37677 36.4021 8.74253 35.9524 8.74253C35.5028 8.74253 35.137 8.37666 35.137 7.92714V7.11164H35.1369ZM18.1015 7.11164H19.7325V7.92714C19.7325 8.37677 19.3667 8.74253 18.917 8.74253C18.4674 8.74253 18.1015 8.37666 18.1015 7.92714V7.11164ZM24.7316 37.3256L27.4507 35.1373L30.179 37.3226L24.7316 37.3256ZM30.2078 18.6464V20.499C30.2078 20.9182 29.8667 21.2593 29.4475 21.2593H25.4657C25.0465 21.2593 24.7054 20.9182 24.7054 20.499V18.6464H30.2078ZM26.4581 12.7386V6.91824C27.0743 4.61285 28.1248 5.49357 28.4114 6.91824V12.7386H26.4581Z" fill="#FFC14B"/>
<path d="M13.0592 28.619C13.0232 28.5217 12.9804 28.4283 12.9348 28.3367C14.5196 28.5492 16.047 27.5062 16.0627 25.8511C16.0627 24.4804 14.9476 23.3654 13.5771 23.3654H4.97127V14.8035C4.97127 14.3569 4.60928 13.995 4.16277 13.995C3.71627 13.995 3.35428 14.3569 3.35428 14.8035V23.4752C3.35428 24.3062 4.0304 24.9822 4.86142 24.9822H13.577C14.0559 24.9822 14.4456 25.3719 14.4456 25.851C14.4456 26.3301 14.0559 26.7196 13.577 26.7196H4.86142C3.07238 26.7197 1.61699 25.2643 1.61699 23.4753V9.33584C1.61699 8.85689 2.00668 8.46709 2.48563 8.46709C2.96459 8.46709 3.35428 8.85678 3.35428 9.33584V10.9966C3.35428 11.4432 3.71627 11.8051 4.16277 11.8051C4.60928 11.8051 4.97127 11.4432 4.97127 10.9966V9.33584C4.97127 7.96517 3.85619 6.8501 2.48563 6.8501C1.11507 6.8501 0 7.96517 0 9.33584V23.4753C0 26.0144 1.9572 28.1039 4.44197 28.3174C4.37772 28.4449 4.32124 28.5776 4.27542 28.7162L1.24292 37.8807C1.10268 38.3047 1.33261 38.7621 1.75648 38.9023C2.18045 39.0427 2.63774 38.8125 2.77798 38.3888L5.81059 29.2241C5.9862 28.6933 6.47981 28.3367 7.03907 28.3367H10.3299C10.8684 28.3367 11.356 28.676 11.5431 29.1809L14.9662 38.4157C15.1504 38.7056 15.4187 39.0754 16.0053 38.8929C16.424 38.7377 16.6375 38.2725 16.4823 37.8538L13.0592 28.619Z" fill="#FFC14B"/>
<path d="M54.9993 23.4753V9.33584C54.9993 7.96517 53.8842 6.8501 52.5137 6.8501C51.143 6.8501 50.0279 7.96517 50.0279 9.33584V23.3654H41.4222C40.0516 23.3654 38.9366 24.4804 38.9366 25.8511C38.9179 27.4893 40.4983 28.5437 42.0644 28.3367C42.0188 28.4283 41.976 28.5217 41.94 28.619L38.5169 37.8538C38.3618 38.2725 38.5753 38.7376 38.994 38.8929C39.3029 38.9983 39.7956 38.9212 40.0331 38.4157L43.4562 29.181C43.6434 28.676 44.1311 28.3367 44.6695 28.3367H47.9603C48.5195 28.3367 49.0132 28.6934 49.1888 29.2242L52.2214 38.3888C52.3617 38.8127 52.8186 39.0427 53.243 38.9024C53.6669 38.7621 53.8968 38.3047 53.7566 37.8807L50.724 28.7163C50.6782 28.5778 50.6218 28.4451 50.5575 28.3178C52.9069 28.1681 55.0506 25.9708 54.9993 23.4753ZM53.3823 23.4753C53.4167 25.111 51.9421 26.7513 50.1379 26.7197H41.4222C40.3498 26.6905 40.2632 25.0729 41.4222 24.9825H50.1379C50.9689 24.9825 51.6449 24.3064 51.6449 23.4754V9.33584C51.6449 8.85689 52.0346 8.46709 52.5137 8.46709C52.9927 8.46709 53.3823 8.85678 53.3823 9.33584V23.4753Z" fill="#FFC14B"/>
</svg>
