<svg width="55" height="47" viewBox="0 0 55 47" fill="none" xmlns="http://www.w3.org/2000/svg">
<path d="M54.8376 40.2501C54.6836 40.0437 54.441 39.922 54.1834 39.922H50.174C51.8247 38.5813 52.8822 36.5365 52.8822 34.2492V24.3924C52.8822 20.3637 49.6041 17.0856 45.5754 17.0856H43.2067C44.0392 16.5917 44.8159 15.9917 45.5158 15.2913C47.9798 12.8274 49.2118 9.42007 48.895 5.94313C48.8593 5.55037 48.548 5.23943 48.1556 5.20376C45.5032 4.96248 42.9129 5.60702 40.7255 7.03035C40.1829 4.49 38.8053 2.18504 36.7647 0.486017C36.4622 0.233828 36.0224 0.233828 35.7194 0.486017C33.6788 2.18504 32.3017 4.49042 31.7587 7.03035C29.5704 5.60702 26.9792 4.96207 24.3285 5.20376C23.9362 5.23943 23.6248 5.55037 23.5892 5.94313C23.2728 9.41965 24.5044 12.8269 26.9683 15.2909C27.6687 15.9913 28.445 16.5917 29.2771 17.0856H27.2453C24.9684 17.0856 22.8964 18.1313 21.5435 19.8186V16.1285C21.5435 15.6774 21.1781 15.3119 20.7265 15.3119H17.9781V11.5681C17.9781 10.2501 16.9059 9.17753 15.5875 9.17753H14.2615V5.27132C14.2615 3.9575 13.1928 2.88874 11.8789 2.88874H8.72174C7.40792 2.88874 6.33874 3.9575 6.33874 5.27132V9.17753H5.01359C3.69474 9.17753 2.62178 10.2501 2.62178 11.5685V15.5284C2.62178 15.9795 2.98768 16.345 3.43877 16.345C3.88986 16.345 4.25534 15.9795 4.25534 15.5284V11.5685C4.25534 11.151 4.59565 10.8115 5.01359 10.8115H15.5879C16.005 10.8115 16.3445 11.151 16.3445 11.5685V15.3119H13.518C13.0664 15.3119 12.701 15.6774 12.701 16.1285V22.1852C9.17954 23.8792 6.93375 27.425 6.93375 31.3668C6.93375 34.9487 8.79182 38.1046 11.5949 39.922H5.00939C4.59355 39.9195 4.25576 39.5813 4.25576 39.1654V18.796C4.25576 18.3449 3.88986 17.979 3.43877 17.979C2.98768 17.979 2.6222 18.3449 2.6222 18.796V39.1654C2.6222 39.4298 2.66584 39.6841 2.74556 39.922H0.817007C0.559363 39.922 0.316405 40.0437 0.162406 40.2501C0.00798668 40.4566 -0.03943 40.7239 0.0335833 40.971C0.532507 42.6529 1.53917 44.0968 2.94488 45.1462C4.3506 46.1957 6.02109 46.7504 7.77509 46.7504H39.0449C39.496 46.7504 39.8615 46.3845 39.8615 45.9334C39.8615 45.4823 39.496 45.1164 39.0449 45.1164H7.77551C5.32537 45.1164 3.09385 43.6969 2.01585 41.5556H45.5754H45.5838H52.9841C51.9066 43.6969 49.675 45.1164 47.2249 45.1164H42.3125C41.8614 45.1164 41.4955 45.4823 41.4955 45.9334C41.4955 46.3845 41.8614 46.7504 42.3125 46.7504H47.2249C48.9789 46.7504 50.6494 46.1957 52.0551 45.1462C53.4608 44.0968 54.4675 42.6529 54.9664 40.971C55.0394 40.7239 54.992 40.4566 54.8376 40.2501ZM40.9684 8.85904C42.7908 7.4592 45.0068 6.73788 47.3076 6.79075C47.3688 9.53672 46.3152 12.1816 44.3606 14.1361C42.6947 15.8024 40.5266 16.8133 38.2225 17.0374C39.9962 14.9405 40.9852 12.2793 40.9852 9.48511C40.9852 9.27572 40.9793 9.06717 40.9684 8.85904ZM36.2423 2.2077C38.2266 4.10563 39.3516 6.72068 39.3516 9.48511C39.3516 12.25 38.2266 14.865 36.2423 16.7625C34.2579 14.865 33.1329 12.25 33.1329 9.48511C33.1329 6.72068 34.2579 4.10563 36.2423 2.2077ZM25.1766 6.79075C27.4803 6.7362 29.6937 7.4592 31.5161 8.85946C31.5052 9.06717 31.4994 9.27572 31.4994 9.48553C31.4994 12.2793 32.4884 14.941 34.2625 17.0378C31.9584 16.8137 29.7907 15.8033 28.1235 14.1361C26.169 12.1816 25.1157 9.53672 25.1766 6.79075ZM12.6279 9.17753H7.97231V5.27132C7.97231 4.85842 8.30842 4.52231 8.72174 4.52231H11.8789C12.2923 4.52231 12.6279 4.85842 12.6279 5.27132V9.17753ZM14.3345 16.9455H19.91V19.177H14.3345V16.9455ZM8.56732 31.3668C8.56732 27.9021 10.6339 24.8015 13.8322 23.4676C14.1365 23.3408 14.3345 23.0433 14.3345 22.7139V20.8106H19.91V22.7139C19.91 23.0433 20.108 23.3408 20.4123 23.4676C23.6106 24.8015 25.6772 27.9021 25.6772 31.3668C25.6772 36.0842 21.8398 39.922 17.1225 39.922C12.4047 39.922 8.56732 36.0842 8.56732 31.3668ZM45.5838 39.922H22.6501C24.5216 38.7085 25.9718 36.8978 26.7287 34.762H41.9247C44.2213 34.762 46.0894 32.8938 46.0894 30.5973V29.5856C46.0894 27.289 44.2213 25.4209 41.9247 25.4209H27.8382C27.3867 25.4209 27.0212 25.7864 27.0212 26.2375C27.0212 26.6885 27.3867 27.0544 27.8382 27.0544H41.9247C43.3204 27.0544 44.4559 28.1899 44.4559 29.5856V30.5973C44.4559 31.9929 43.3204 33.1284 41.9247 33.1284H27.1584C27.2583 32.556 27.3112 31.9677 27.3112 31.3668C27.3112 27.5748 25.2315 24.1494 21.9384 22.3871C22.7608 20.1988 24.8581 18.7196 27.2457 18.7196H35.2394H35.2419H45.575C48.7032 18.7196 51.2482 21.2646 51.2482 24.3924V34.2492C51.2486 37.3745 48.7078 39.9174 45.5838 39.922Z" fill="#FFC14B"/>
</svg>
