<svg width="51" height="51" viewBox="0 0 51 51" fill="none" xmlns="http://www.w3.org/2000/svg">
<path d="M5.18185 11.4951H6.67211V10.0349H8.13228V8.54465H6.67211V7.08447H5.18185V8.54465H3.72168V10.0349H5.18185V11.4951Z" fill="#FFC14B"/>
<path d="M27.301 13.2806H28.7914V11.8205H30.2515V10.3301H28.7914V8.86987H27.301V10.3301H25.8408V11.8205H27.301V13.2806Z" fill="#FFC14B"/>
<path d="M46.2473 7.62022H47.7376V6.16015H49.1977V4.66979H47.7376V3.20972H46.2473V4.66979H44.7871V6.16015H46.2473V7.62022Z" fill="#FFC14B"/>
<path d="M15.1164 6.27657H16.6067V4.8165H18.0669V3.32624H16.6067V1.86597H15.1164V3.32624H13.6562V4.8165H15.1164V6.27657Z" fill="#FFC14B"/>
<path d="M25.9706 22.5059L24.6624 23.2199C25.0756 23.9771 25.3866 24.7793 25.5912 25.614H20.4482V27.1043H27.3676L27.235 26.2456C27.032 24.9297 26.6067 23.6716 25.9706 22.5059Z" fill="#FFC14B"/>
<path d="M18.9264 25.6138H17.4004V27.1041H18.9264V25.6138Z" fill="#FFC14B"/>
<path d="M7.87305 19.7263L8.90839 20.7982C9.74491 19.9904 10.7042 19.3405 11.7598 18.8671L11.1499 17.5073C9.93645 18.0516 8.83398 18.7983 7.87305 19.7263Z" fill="#FFC14B"/>
<path d="M48.6624 28.0977H48.5274V27.4486H46.3174V22.1294C47.0791 21.9974 47.7977 21.6654 48.3933 21.1617C49.3783 20.3287 49.9432 19.1119 49.9432 17.8229V12.5354H41.2012V17.8229C41.2012 19.0068 41.6669 20.1151 42.5122 20.9442C43.154 21.5735 43.9576 21.9807 44.8271 22.1296V27.4486H42.6173V28.0977H40.0501V25.3406V14.5479V14.1094H40.0273C39.8847 12.5807 39.0064 11.2137 37.6754 10.451V3.73206V2.24171V0H32.9815V3.73206H32.9819V10.451C31.651 11.2136 30.7727 12.5806 30.63 14.1094H30.6072V14.5479V25.3407V28.0977H29.8544V28.0114C29.8544 25.345 29.1015 22.752 27.6772 20.5124C25.2257 16.6573 21.1276 14.2767 16.6072 14.0399V12.7764H15.1168V14.0389C11.1675 14.2465 7.51243 16.0983 4.99799 19.1924C2.9807 21.6747 1.86965 24.8066 1.86965 28.0113V28.0976H0.0654297V33.9865H2.33842V50.999L13.8133 49.5103L24.8661 50.9013L37.2835 49.5097L48.6625 51V33.9865H50.9354V28.0977H48.6624ZM43.5558 19.8799C42.9986 19.3336 42.6917 18.603 42.6917 17.8229V14.0257H48.453V17.8229C48.453 18.6724 48.0805 19.4745 47.4311 20.0237C46.9127 20.4621 46.2526 20.7035 45.5724 20.7035C44.8135 20.7035 44.0975 20.4111 43.5558 19.8799ZM34.4717 1.49036H36.185V2.24181H34.4717V1.49036ZM34.0274 11.5901L34.4722 11.3941V3.73216H36.1851V11.3942L36.6298 11.5902C37.6666 12.0472 38.3779 13.0082 38.5289 14.1095H32.1284C32.2793 13.008 32.9907 12.0472 34.0274 11.5901ZM32.0973 15.5997H38.5598V23.8504H32.0973V15.5997ZM32.0973 25.3407H38.5598V27.4486H32.0973V25.3407ZM2.33842 32.4963H1.55579V32.4962V29.5881H1.86946H2.33842V32.4963ZM3.35971 28.0114C3.35971 25.1481 4.35222 22.35 6.15415 20.1325C8.54199 17.1944 12.0802 15.5094 15.8618 15.5094C20.1619 15.5094 24.1086 17.6786 26.4194 21.3121C27.6914 23.3124 28.3638 25.6288 28.3638 28.0114V28.0977H3.35971V28.0114ZM47.1721 49.3019L37.9364 48.0923V41.0527H36.4461V48.104L25.6162 49.3176V37.1342H24.1259V49.3061L14.557 48.102V44.5961H13.0666V48.1045L3.82867 49.3028V29.5881H29.8541H47.172V49.3019H47.1721ZM49.445 32.4962H48.6624V29.5881H49.445V32.4962Z" fill="#FFC14B"/>
<path d="M25.6163 34.2109H24.126V35.5076H25.6163V34.2109Z" fill="#FFC14B"/>
<path d="M14.5568 33.0188H13.0664V43.0536H14.5568V33.0188Z" fill="#FFC14B"/>
<path d="M37.9366 33.0188H36.4463V39.1351H37.9366V33.0188Z" fill="#FFC14B"/>
</svg>
