<svg width="54" height="50" viewBox="0 0 54 50" fill="none" xmlns="http://www.w3.org/2000/svg">
<path d="M52.9453 41.5242H50.853V20.0486C52.0857 19.0984 52.8814 17.6075 52.8814 15.9342V10.2811C52.8814 10.2712 52.8758 10.0346 52.7977 9.86531L49.4501 1.49205C49.2899 1.09147 48.9021 0.828857 48.4707 0.828857H5.5292C5.09783 0.828857 4.71002 1.09147 4.54982 1.49205L1.20234 9.86531C1.12419 10.0167 1.1186 10.2712 1.1186 10.2811V15.9342C1.1186 17.6075 1.91426 19.0984 3.14698 20.0486V41.5241H1.05469C0.472184 41.5241 0 41.9963 0 42.5788V48.1164C0 48.6989 0.472184 49.1711 1.05469 49.1711H22.2322C22.8147 49.1711 23.2869 48.6989 23.2869 48.1164C23.2869 47.5339 22.8147 47.0617 22.2322 47.0617H2.10938V43.6335H51.8906V47.0617H31.7679C31.1854 47.0617 30.7132 47.5339 30.7132 48.1164C30.7132 48.6989 31.1854 49.1711 31.7679 49.1711H52.9453C53.5278 49.1711 54 48.6989 54 48.1164V42.5788C54 41.9964 53.5278 41.5242 52.9453 41.5242ZM42.4964 15.9342C42.4964 17.6342 41.1133 19.0173 39.4134 19.0173C37.7134 19.0173 36.3303 17.6341 36.3303 15.9342V11.3326H42.4964V15.9342ZM34.2209 15.9342C34.2209 17.6342 32.8378 19.0173 31.1379 19.0173C29.4379 19.0173 28.0547 17.6342 28.0547 15.9342V11.3326H34.2209V15.9342ZM25.9453 15.9342C25.9453 17.6342 24.5622 19.0173 22.8623 19.0173C21.1623 19.0173 19.7792 17.6341 19.7792 15.9342V11.3326H25.9453V15.9342ZM17.6698 15.9342C17.6698 17.6342 16.2867 19.0173 14.5868 19.0173C12.8868 19.0173 11.5037 17.6341 11.5037 15.9342V11.3326H17.6699V15.9342H17.6698ZM3.22798 15.9342V11.3326H9.3941V15.9342C9.3941 17.6342 8.01098 19.0173 6.31104 19.0173C4.61109 19.0173 3.22798 17.6342 3.22798 15.9342ZM18.6385 2.93823L17.801 9.22322H11.8215L13.4965 2.93823H18.6385ZM28.0547 2.93823H33.2334L34.0709 9.22322H28.0547V2.93823ZM40.5035 2.93823L42.1785 9.22322H36.1991L35.3616 2.93823H40.5035ZM44.6058 11.3326H50.7719V15.9342C50.7719 17.6342 49.3888 19.0173 47.6889 19.0173C45.9889 19.0173 44.6058 17.6341 44.6058 15.9342V11.3326ZM50.2691 9.22322H44.3614L42.6864 2.93823H47.7565L50.2691 9.22322ZM25.9453 9.22322H19.9291L20.7666 2.93823H25.9453V9.22322ZM6.24343 2.93823H11.3135L9.63847 9.22322H3.73085L6.24343 2.93823ZM10.3149 41.5242V26.175H21.2269V41.5241H10.3149V41.5242ZM23.3362 41.5242V25.1203C23.3362 24.5378 22.864 24.0656 22.2815 24.0656H9.26026C8.67776 24.0656 8.20557 24.5378 8.20557 25.1203V41.5241H5.25635V21.019C5.59702 21.0895 5.94981 21.1266 6.31104 21.1266C7.99812 21.1266 9.49968 20.3178 10.4488 19.0677C11.3978 20.3178 12.8995 21.1266 14.5865 21.1266C16.2736 21.1266 17.7753 20.3178 18.7243 19.0677C19.6733 20.3178 21.175 21.1266 22.862 21.1266C24.5491 21.1266 26.0508 20.3178 26.9998 19.0677C27.9488 20.3178 29.4505 21.1266 31.1375 21.1266C32.8246 21.1266 34.3263 20.3178 35.2753 19.0677C36.2243 20.3178 37.726 21.1266 39.413 21.1266C41.1001 21.1266 42.6018 20.3178 43.5508 19.0677C44.4998 20.3178 46.0015 21.1266 47.6885 21.1266C48.0498 21.1266 48.4026 21.0895 48.7432 21.019V41.5241H23.3362V41.5242Z" fill="#FFC14B"/>
<path d="M44.7402 24.0657H28.3408C27.7583 24.0657 27.2861 24.5379 27.2861 25.1204V36.5918C27.2861 37.1743 27.7583 37.6465 28.3408 37.6465H44.7402C45.3227 37.6465 45.7948 37.1743 45.7948 36.5918V25.1204C45.7948 24.5379 45.3227 24.0657 44.7402 24.0657ZM43.6855 35.5371H36.4455L38.2233 33.7592C38.6352 33.3473 38.6352 32.6795 38.2233 32.2676C37.8115 31.8557 37.1437 31.8557 36.7317 32.2676L33.4622 35.5371H29.3954V26.1751H43.6854V35.5371H43.6855Z" fill="#FFC14B"/>
<path d="M31.917 33.5348C31.6471 33.5348 31.3771 33.4319 31.1712 33.2259C30.7593 32.8141 30.7593 32.1462 31.1712 31.7343L35.3715 27.534C35.7833 27.1221 36.4512 27.1221 36.8631 27.534C37.275 27.9458 37.275 28.6137 36.8631 29.0256L32.6628 33.2259C32.4568 33.4319 32.1869 33.5348 31.917 33.5348Z" fill="#FFC14B"/>
<path d="M27.0185 49.1713C26.5714 49.1713 26.1644 48.8774 26.0208 48.4553C25.8809 48.0444 26.0142 47.5774 26.3494 47.3014C26.6936 47.0183 27.1967 46.9846 27.5751 47.2206C27.9434 47.4503 28.1388 47.8958 28.0532 48.3223C27.9554 48.8089 27.5157 49.1713 27.0185 49.1713Z" fill="#FFC14B"/>
</svg>
