<svg width="52" height="52" viewBox="0 0 52 52" fill="none" xmlns="http://www.w3.org/2000/svg">
<path d="M51.7544 18.6974L43.3674 10.3104C43.2467 10.1901 43.0923 10.1093 42.9245 10.0789L33.6988 8.40153C33.2431 8.3186 32.8064 8.62085 32.7235 9.07658C32.7145 9.12585 32.71 9.17586 32.71 9.22597C32.7075 9.49247 32.6836 9.75834 32.6387 10.0211L26.839 8.57178V8.3034C29.1083 7.84023 30.5723 5.62511 30.1091 3.35589C29.646 1.08667 27.4308 -0.377386 25.1616 0.0857872C23.2094 0.484276 21.8072 2.20131 21.8068 4.19375H23.4842C23.4842 2.80413 24.6107 1.67765 26.0003 1.67765C27.39 1.67765 28.5164 2.80413 28.5164 4.19375C28.5164 5.58338 27.39 6.70986 26.0003 6.70986C25.5372 6.70986 25.1616 7.08539 25.1616 7.54857V8.57094L19.362 10.0211C19.317 9.75834 19.2931 9.49247 19.2907 9.22597C19.2908 8.97719 19.1805 8.74131 18.9896 8.58185C18.7998 8.42019 18.5466 8.35383 18.3019 8.40153L9.07615 10.0789C8.90841 10.1093 8.75398 10.1901 8.63331 10.3104L0.246283 18.6974C-0.0811254 19.025 -0.0811254 19.5559 0.246283 19.8834L6.95591 26.593C7.28342 26.9204 7.81432 26.9204 8.14183 26.593L10.065 24.6698V30.1935H4.19406C1.885 30.1868 0.00777706 32.0534 0.00106744 34.3624C-0.00281157 35.6961 0.62978 36.9515 1.70395 37.7419C-0.148851 39.0956 -0.55342 41.6951 0.800456 43.5479C1.05322 43.8939 1.35798 44.1986 1.70395 44.4514C-0.15577 45.8199 -0.553944 48.4371 0.814609 50.2968C1.60509 51.3709 2.86052 52.0035 4.19406 51.9997H34.3874C34.6098 51.9997 34.8231 51.9112 34.9803 51.754L41.6899 45.0444C41.8452 44.8864 41.931 44.6729 41.9281 44.4514H41.9357V24.6698L43.8588 26.593C44.1863 26.9204 44.7172 26.9204 45.0448 26.593L51.7544 19.8834C52.0818 19.5559 52.0818 19.0249 51.7544 18.6974ZM26.0003 10.0898L32.0994 11.6146C30.8352 13.7693 28.4975 15.0639 26.0003 14.9921C23.5032 15.0639 21.1654 13.7693 19.9013 11.6146L26.0003 10.0898ZM1.67795 34.3871C1.67795 32.9974 2.80443 31.871 4.19406 31.871H22.6455C24.0351 31.871 25.1616 32.9974 25.1616 34.3871C25.1616 35.7767 24.0351 36.9032 22.6455 36.9032H4.19406C2.80443 36.9032 1.67795 35.7766 1.67795 34.3871ZM1.67795 41.0967C1.67795 39.7071 2.80443 38.5806 4.19406 38.5806H22.6455C24.0351 38.5806 25.1616 39.7071 25.1616 41.0967C25.1616 42.4863 24.0351 43.6128 22.6455 43.6128H4.19406C2.80443 43.6128 1.67795 42.4862 1.67795 41.0967ZM22.6455 50.3224H20.9681H4.19406C2.80443 50.3224 1.67795 49.1959 1.67795 47.8063C1.67795 46.4167 2.80443 45.2902 4.19406 45.2902H22.6455C24.0351 45.2902 25.1616 46.4167 25.1616 47.8063C25.1616 49.1959 24.0351 50.3224 22.6455 50.3224ZM35.2261 49.1365V45.2902H39.0724L35.2261 49.1365ZM44.4518 24.8141L39.1738 19.5361L37.9879 20.7221L40.2583 22.9924V43.6128H34.3874C33.9242 43.6128 33.5487 43.9883 33.5487 44.4515V50.3224H25.9785C27.3744 48.514 27.0401 45.9164 25.2318 44.5204C25.2015 44.497 25.1709 44.474 25.1398 44.4515C26.9926 43.0977 27.3972 40.4983 26.0434 38.6454C25.7907 38.2994 25.4859 37.9946 25.1398 37.7419C26.9996 36.3733 27.3978 33.7561 26.0292 31.8964C25.2378 30.8211 23.9805 30.1884 22.6455 30.1935H11.7424V22.9924L14.0128 20.7221L12.8268 19.5361L7.54887 24.8141L2.02517 19.2904L9.63388 11.6817L17.6854 10.2182C18.2339 13.8548 21.7531 16.6695 25.9987 16.6695C30.2442 16.6695 33.7634 13.8548 34.3119 10.2182L42.3634 11.6817L49.9755 19.2904L44.4518 24.8141Z" fill="#FFC14B"/>
<path d="M23.4843 33.5483H3.35547V35.2257H23.4843V33.5483Z" fill="#FFC14B"/>
<path d="M22.6456 40.2578H3.35547V41.9352H22.6456V40.2578Z" fill="#FFC14B"/>
<path d="M22.6456 46.9675H3.35547V48.6449H22.6456V46.9675Z" fill="#FFC14B"/>
</svg>
