<svg width="50" height="50" viewBox="0 0 50 50" fill="none" xmlns="http://www.w3.org/2000/svg">
<path d="M35.0971 4.65991H5.21738C4.81201 4.65991 4.4835 4.98843 4.4835 5.3938V32.3642C4.4835 32.7696 4.81201 33.0981 5.21738 33.0981C5.62275 33.0981 5.95127 32.7696 5.95127 32.3642V17.3838H34.3633V43.8725H31.2036C31.7006 43.2326 31.9976 42.4301 31.9976 41.5591V34.7957C31.9976 34.4534 31.9783 34.1126 31.9418 33.7744C31.9406 33.7599 31.939 33.7457 31.937 33.7314C31.6979 31.6081 30.7521 29.5968 29.2527 28.0606V24.0674V21.6817C29.2527 20.7168 28.4677 19.9317 27.5026 19.9317H25.6652C24.7003 19.9317 23.9152 20.7168 23.9152 21.6817V24.0674V28.0604C22.4164 29.596 21.4706 31.6064 21.2312 33.7291C21.2291 33.7445 21.2272 33.76 21.2261 33.7757C21.1896 34.1134 21.1705 34.4538 21.1705 34.7956V41.559C21.1705 42.4299 21.4675 43.2325 21.9645 43.8724H18.3979C18.895 43.2325 19.192 42.43 19.192 41.559V31.9059C19.192 31.0437 18.7231 29.9268 18.3039 29.1001H18.4581C18.8635 29.1001 19.192 28.7716 19.192 28.3663C19.192 27.9609 18.8635 27.6324 18.4581 27.6324H17.0515H10.4817H9.075C8.66963 27.6324 8.34111 27.9609 8.34111 28.3663C8.34111 28.7716 8.66963 29.1001 9.075 29.1001H9.2292C8.80996 29.9268 8.34111 31.0437 8.34111 31.9059V41.559C8.34111 42.4299 8.63809 43.2325 9.13506 43.8724H5.95117V35.2996C5.95117 34.8942 5.62266 34.5657 5.21729 34.5657C4.81191 34.5657 4.4834 34.8942 4.4834 35.2996V44.6062C4.4834 45.0116 4.81191 45.3401 5.21729 45.3401H12.1248H15.4081H24.954H28.2138H35.097C35.5023 45.3401 35.8309 45.0116 35.8309 44.6062V5.3938C35.831 4.98843 35.5024 4.65991 35.0971 4.65991ZM22.6382 34.7956C22.6382 34.7188 22.6419 34.6423 22.6441 34.5658H30.5239C30.5261 34.6423 30.5299 34.7188 30.5299 34.7956V39.5034H22.6383V34.7956H22.6382ZM25.383 21.6817C25.383 21.526 25.5097 21.3995 25.6652 21.3995H27.5026C27.6583 21.3995 27.785 21.5261 27.785 21.6817V23.3335H25.3829V21.6817H25.383ZM25.1568 28.8962C25.3013 28.7578 25.383 28.5664 25.383 28.3663V24.8012H27.7851V28.3663C27.7851 28.5664 27.8668 28.7578 28.0112 28.8962C29.1976 30.0328 30.0076 31.5084 30.3482 33.098H22.8199C23.1604 31.5084 23.9705 30.0328 25.1568 28.8962ZM9.80889 34.5658H17.7242V39.5035H9.80889V34.5658ZM16.6359 29.1001C17.1221 29.9441 17.7242 31.2167 17.7242 31.9059V33.0981H9.80889V31.9059C9.80889 31.2167 10.4111 29.944 10.8972 29.1001H16.6359ZM12.1249 43.8724C10.8479 43.8724 9.80898 42.8346 9.80898 41.559V40.971H17.7243V41.559C17.7243 42.8346 16.6854 43.8724 15.4083 43.8724H12.1249ZM24.9541 43.8724C23.6771 43.8724 22.6382 42.8346 22.6382 41.559V40.971H30.5298V41.559C30.5298 42.8346 29.4908 43.8724 28.2139 43.8724H24.9541ZM9.28184 12.7834C9.28184 11.0561 10.6886 9.65093 12.4178 9.65093C14.147 9.65093 15.5537 11.0561 15.5537 12.7834C15.5537 14.5108 14.147 15.9161 12.4178 15.9161C10.6886 15.9161 9.28184 14.5108 9.28184 12.7834ZM27.8967 15.9161C26.1676 15.9161 24.7608 14.5108 24.7608 12.7834C24.7608 11.0561 26.1676 9.65093 27.8967 9.65093C29.6259 9.65093 31.0326 11.0561 31.0326 12.7834C31.0326 14.5108 29.6259 15.9161 27.8967 15.9161ZM24.5297 15.9161H23.5242C23.7103 15.7166 23.8784 15.5005 24.027 15.2706C24.1755 15.5005 24.3437 15.7167 24.5297 15.9161ZM20.1572 15.9161C18.4281 15.9161 17.0213 14.5108 17.0213 12.7834C17.0213 11.0561 18.428 9.65093 20.1572 9.65093C21.8863 9.65093 23.2932 11.0561 23.2932 12.7834C23.2932 14.5108 21.8863 15.9161 20.1572 15.9161ZM16.7901 15.9161H15.7847C15.9707 15.7166 16.1389 15.5005 16.2874 15.2706C16.436 15.5005 16.6042 15.7167 16.7901 15.9161ZM31.2638 15.9161C32.0302 15.0941 32.5003 13.9928 32.5003 12.7834C32.5003 10.2468 30.4351 8.18315 27.8967 8.18315C26.2748 8.18315 24.8472 9.02642 24.027 10.2963C23.2066 9.02632 21.7791 8.18315 20.1572 8.18315C18.5354 8.18315 17.1077 9.02642 16.2875 10.2963C15.4673 9.02632 14.0396 8.18315 12.4178 8.18315C9.87939 8.18315 7.81416 10.2468 7.81416 12.7834C7.81416 13.9929 8.28437 15.0941 9.05068 15.9161H5.95117V6.12769H34.3632V15.9161H31.2638Z" fill="#FFC14B"/>
<path d="M11.9069 12.0496H10.7827C10.3773 12.0496 10.0488 12.3781 10.0488 12.7834C10.0488 13.1888 10.3773 13.5173 10.7827 13.5173H11.9069C12.3123 13.5173 12.6408 13.1888 12.6408 12.7834C12.6407 12.3782 12.3122 12.0496 11.9069 12.0496Z" fill="#FFC14B"/>
<path d="M19.6462 12.0496H18.522C18.1166 12.0496 17.7881 12.3781 17.7881 12.7834C17.7881 13.1888 18.1166 13.5173 18.522 13.5173H19.6462C20.0516 13.5173 20.3801 13.1888 20.3801 12.7834C20.3801 12.3782 20.0516 12.0496 19.6462 12.0496Z" fill="#FFC14B"/>
<path d="M27.3854 12.0496H26.2612C25.8559 12.0496 25.5273 12.3781 25.5273 12.7834C25.5273 13.1888 25.8559 13.5173 26.2612 13.5173H27.3854C27.7908 13.5173 28.1193 13.1888 28.1193 12.7834C28.1192 12.3782 27.7907 12.0496 27.3854 12.0496Z" fill="#FFC14B"/>
<path d="M49.2661 33.6029C49.6715 33.6029 50 33.2744 50 32.869V3.78232C50 1.69678 48.3032 0 46.2177 0H43.2397C42.8344 0 42.5059 0.328516 42.5059 0.733887V4.65986H40.3146V3.78232C40.3146 1.69678 38.6179 0 36.5323 0H3.78232C1.69678 0 0 1.69678 0 3.78232V46.2177C0 48.3032 1.69678 50 3.78232 50H36.5323C38.6179 50 40.3146 48.3032 40.3146 46.2177V45.3401H42.5059V49.2661C42.5059 49.6715 42.8344 50 43.2397 50H46.2177C48.3032 50 50 48.3032 50 46.2177V35.8045C50 35.3991 49.6715 35.0706 49.2661 35.0706C48.8607 35.0706 48.5322 35.3991 48.5322 35.8045V46.2177C48.5322 47.4939 47.4939 48.5323 46.2176 48.5323H43.9736V1.46768H46.2177C47.4939 1.46768 48.5323 2.50596 48.5323 3.78223V32.8689C48.5323 33.2744 48.8608 33.6029 49.2661 33.6029ZM42.5059 6.12764V12.8048H40.3146V6.12764H42.5059ZM38.847 46.2177C38.847 47.4939 37.8087 48.5323 36.5323 48.5323H3.78232C2.50605 48.5323 1.46777 47.494 1.46777 46.2177V3.78232C1.46777 2.50605 2.50605 1.46777 3.78232 1.46777H36.5323C37.8086 1.46777 38.847 2.50605 38.847 3.78232V19.1979C38.847 19.6032 39.1755 19.9317 39.5809 19.9317C39.9862 19.9317 40.3147 19.6032 40.3147 19.1979V14.2725H42.506V35.1501H40.3147V22.1333C40.3147 21.7279 39.9862 21.3994 39.5809 21.3994C39.1755 21.3994 38.847 21.7279 38.847 22.1333V46.2177ZM40.3146 43.8724V36.6177H42.5059V43.8724H40.3146Z" fill="#FFC14B"/>
</svg>
