<svg width="15" height="15" viewBox="0 0 15 15" fill="none" xmlns="http://www.w3.org/2000/svg">
<path d="M13.946 12.8281L11.3786 10.2606C12.1567 9.242 12.5834 8.00647 12.5836 6.70272C12.5836 5.13156 11.9717 3.65434 10.8605 2.54338C9.74958 1.43241 8.27255 0.820496 6.7012 0.820496C5.13004 0.820496 3.65282 1.43241 2.54185 2.54338C0.248418 4.83701 0.248418 8.56882 2.54185 10.8621C3.65282 11.9732 5.13004 12.5851 6.7012 12.5851C8.00495 12.585 9.24048 12.1582 10.2591 11.3801L12.8266 13.9476C12.981 14.1022 13.1837 14.1795 13.3863 14.1795C13.5889 14.1795 13.7916 14.1022 13.946 13.9476C14.2553 13.6385 14.2553 13.1371 13.946 12.8281ZM3.66132 9.74259C1.98521 8.06649 1.98541 5.33914 3.66132 3.66284C4.47328 2.85107 5.55293 2.40383 6.7012 2.40383C7.84966 2.40383 8.92911 2.85107 9.74107 3.66284C10.553 4.4748 11.0003 5.55445 11.0003 6.70272C11.0003 7.85118 10.553 8.93063 9.74107 9.74259C8.92911 10.5546 7.84966 11.0018 6.7012 11.0018C5.55293 11.0018 4.47328 10.5546 3.66132 9.74259Z" fill="black"/>
</svg>
