<svg width="61" height="57" viewBox="0 0 61 57" fill="none" xmlns="http://www.w3.org/2000/svg">
<path d="M14.4484 20.6664C13.833 20.3291 13.0605 20.5546 12.7231 21.1702L12.6976 21.2164C12.3604 21.8319 12.5858 22.6044 13.2015 22.9417C13.3953 23.048 13.6047 23.0983 13.8111 23.0983C14.2603 23.0983 14.6956 22.8596 14.9268 22.4379L14.9523 22.3916C15.2895 21.7762 15.0639 21.0037 14.4484 20.6664Z" fill="#FFC14B"/>
<path d="M55.1178 24.707C53.1193 16.9286 47.5161 10.4625 39.9556 7.44082C38.6496 3.3624 34.8096 0.541504 30.5001 0.541504C26.0805 0.541504 22.3277 3.4452 21.0452 7.44451C16.4918 9.26832 12.5924 12.345 9.73963 16.3757C7.93739 18.9222 6.63804 21.7372 5.87721 24.7074C2.59572 24.9525 0 27.6988 0 31.0417C0 34.3866 2.59834 37.1344 5.88245 37.3767C8.70453 48.3366 18.6715 56.4586 30.5001 56.4586C42.3285 56.4586 52.2955 48.3366 55.1174 37.3767C58.4015 37.1344 61 34.3866 61 31.0415C61 27.697 58.4018 24.9496 55.1178 24.707ZM2.54187 31.0415C2.54187 29.2879 3.73244 27.8071 5.34751 27.3643C5.23837 28.1207 5.16236 28.8843 5.12114 29.6539C5.12043 29.6646 5.12007 29.6751 5.11947 29.6858C5.11209 29.8259 5.10553 29.9661 5.10053 30.1066C5.0985 30.1599 5.09743 30.2131 5.096 30.2664C5.0929 30.3672 5.08969 30.4678 5.08778 30.5688C5.08504 30.7264 5.08337 30.884 5.08337 31.0416C5.08337 31.234 5.08635 31.4263 5.09088 31.6189C5.09219 31.6791 5.09386 31.7392 5.09576 31.7992C5.09981 31.9392 5.10529 32.0792 5.11173 32.2191C5.11435 32.2784 5.11673 32.3379 5.11971 32.3973C5.129 32.572 5.1402 32.7464 5.15295 32.9208C5.15903 33.0028 5.16618 33.0843 5.17285 33.166C5.18154 33.2694 5.1906 33.373 5.20049 33.4763C5.20919 33.5673 5.21812 33.6584 5.22777 33.7491C5.23897 33.8554 5.25172 33.9615 5.26423 34.0676C5.28079 34.2065 5.29854 34.345 5.31725 34.4831C5.32797 34.5622 5.33786 34.6412 5.34929 34.7199C3.73327 34.2777 2.54187 32.7961 2.54187 31.0415ZM30.5001 3.08337C33.0172 3.08337 35.3194 4.37604 36.663 6.39941C36.6378 6.39917 36.6124 6.39905 36.587 6.39905C36.5706 6.39905 36.5546 6.40024 36.5382 6.40036C36.5319 6.4006 36.5254 6.40048 36.519 6.40084C32.562 6.43765 29.3542 9.6666 29.3542 13.632C29.3542 15.1751 29.839 16.6422 30.71 17.8526C30.6401 17.8545 30.5699 17.8556 30.5001 17.8556C26.4275 17.8556 23.1142 14.5423 23.1142 10.4697C23.1141 6.39679 26.4274 3.08337 30.5001 3.08337ZM53.3668 31.6438C53.3661 31.6747 53.3643 31.7055 53.3633 31.7365C53.3581 31.9067 53.3519 32.0771 53.3429 32.2473C53.3414 32.2777 53.339 32.3081 53.3372 32.3385C53.3276 32.5085 53.3169 32.6786 53.3035 32.8485C53.3009 32.8828 53.2972 32.9169 53.2943 32.9512C53.2808 33.1154 53.2659 33.2794 53.2488 33.4433C53.2442 33.4889 53.2382 33.5343 53.2332 33.5798C53.2165 33.7299 53.1991 33.8798 53.1796 34.0296C53.1714 34.0922 53.1621 34.1545 53.1533 34.217C53.1354 34.3465 53.1171 34.4759 53.0967 34.6049C53.0835 34.6889 53.0692 34.7723 53.055 34.856C53.0375 34.9605 53.02 35.0649 53.0009 35.169C52.9816 35.2749 52.961 35.3803 52.9401 35.4855C52.9246 35.5643 52.9092 35.6433 52.8927 35.7221C50.7269 46.0981 41.5094 53.9167 30.4999 53.9167C19.4822 53.9167 10.2593 46.0871 8.10216 35.6997C8.08262 35.6055 8.06463 35.5108 8.0464 35.4162C8.02877 35.3259 8.01078 35.2356 7.99434 35.145C7.97098 35.0165 7.94966 34.8875 7.92845 34.7586C7.9188 34.6994 7.9082 34.6403 7.89902 34.5809C7.87377 34.4177 7.85065 34.2543 7.82873 34.0904C7.82504 34.0627 7.82051 34.035 7.81705 34.0073C7.79204 33.8144 7.76916 33.6209 7.74903 33.4274C7.74903 33.4266 7.74879 33.4255 7.74879 33.4247C7.66646 32.6336 7.62488 31.8376 7.62488 31.042C7.62488 30.8624 7.62786 30.6828 7.63215 30.5032C7.6337 30.4443 7.63548 30.3854 7.63739 30.3265C7.64108 30.2057 7.64609 30.0849 7.65181 29.9641C7.65502 29.8938 7.65812 29.8234 7.66205 29.7532C7.66813 29.6463 7.67575 29.5393 7.68326 29.4324C7.69648 29.2477 7.71138 29.0634 7.72889 28.8796C7.73092 28.8585 7.73258 28.8374 7.73461 28.8164C8.5157 20.9067 13.4144 13.8874 20.5733 10.4297C20.5733 10.4432 20.5724 10.4564 20.5724 10.4699C20.5724 11.3796 20.6977 12.2601 20.928 13.0976C18.6469 14.3123 16.6438 15.9307 14.9648 17.9204C14.512 18.4569 14.5801 19.2587 15.1166 19.7112C15.3551 19.9126 15.646 20.0108 15.9355 20.0108C16.297 20.0108 16.6561 19.8573 16.9074 19.5594C18.3257 17.8786 20.0081 16.5011 21.9184 15.4517C23.6402 18.406 26.8411 20.3975 30.5001 20.3975C31.6222 20.3975 32.7247 20.2109 33.7765 19.8431C34.2346 19.6829 34.5615 19.2758 34.6189 18.7937C34.6764 18.3118 34.4542 17.8392 34.0465 17.576C32.6999 16.7061 31.896 15.2319 31.896 13.6322C31.896 11.098 33.9162 9.02813 36.4308 8.94509C44.8724 11.2036 51.1505 18.0293 52.8899 26.3484C52.9186 26.486 52.9466 26.6239 52.9727 26.7621C52.9862 26.8343 52.9988 26.907 53.012 26.9794C53.0322 27.0925 53.0521 27.2058 53.0707 27.3192C53.0819 27.3871 53.0925 27.4551 53.1031 27.5233C53.1228 27.6509 53.1416 27.7786 53.159 27.9066C53.1664 27.9598 53.174 28.0131 53.181 28.0664C53.2294 28.4379 53.2688 28.8108 53.2992 29.1845C53.3027 29.2272 53.3054 29.2704 53.3086 29.3134C53.3196 29.4571 53.329 29.601 53.3372 29.7449C53.3403 29.8008 53.3433 29.8569 53.346 29.9129C53.353 30.0499 53.3581 30.187 53.3624 30.324C53.3642 30.3771 53.3661 30.4301 53.3675 30.483C53.372 30.6693 53.3749 30.8556 53.3749 31.0417C53.3748 31.2425 53.372 31.4432 53.3668 31.6438ZM55.6507 34.7199C55.6646 34.6238 55.6773 34.5273 55.6901 34.4309C55.7037 34.3292 55.7168 34.2272 55.7293 34.125C55.7449 33.9968 55.7598 33.8684 55.7735 33.7399C55.7825 33.6558 55.7907 33.5715 55.7986 33.487C55.8093 33.3763 55.819 33.2656 55.8282 33.1549C55.8345 33.0782 55.8413 33.0017 55.8469 32.9248C55.86 32.7483 55.8712 32.5719 55.8806 32.3951C55.8839 32.3381 55.8858 32.281 55.8885 32.224C55.8949 32.0818 55.9004 31.9398 55.9046 31.7976C55.9064 31.7384 55.908 31.679 55.9096 31.6197C55.9138 31.427 55.9169 31.2344 55.9169 31.0415C55.9169 30.8739 55.9148 30.7062 55.9116 30.5386C55.9103 30.4777 55.9083 30.417 55.9066 30.3561C55.9039 30.2509 55.9007 30.1457 55.8967 30.0404C55.8937 29.9655 55.8899 29.8907 55.8866 29.816C55.8822 29.7255 55.8777 29.6352 55.8722 29.5449C55.8675 29.4636 55.8624 29.3826 55.8568 29.3016C55.8511 29.2182 55.8449 29.135 55.8384 29.0517C55.8318 28.9673 55.8252 28.8827 55.8177 28.7984C55.8105 28.717 55.8025 28.6358 55.7945 28.5544C55.7864 28.4707 55.7785 28.3868 55.7696 28.3031C55.7595 28.2085 55.7479 28.1143 55.7366 28.0199C55.7241 27.9149 55.7113 27.8102 55.6975 27.7056C55.6824 27.5914 55.6675 27.4773 55.6509 27.3635C57.2672 27.8055 58.4584 29.2869 58.4584 31.0413C58.4581 32.7963 57.267 34.2777 55.6507 34.7199Z" fill="#FFC14B"/>
<path d="M25.9792 32.5127C25.3846 30.2943 23.3657 28.7449 21.069 28.7449C18.7727 28.7449 16.7535 30.2943 16.1589 32.5127C15.9772 33.1907 16.3795 33.8876 17.0574 34.0693C17.7356 34.2507 18.4323 33.8486 18.614 33.1707C18.9114 32.0614 19.9209 31.2866 21.0689 31.2866C22.217 31.2866 23.2265 32.0614 23.5238 33.1707C23.6759 33.7384 24.1895 34.1129 24.7506 34.1129C24.8593 34.1129 24.9701 34.0988 25.0804 34.0693C25.7586 33.8876 26.1608 33.1907 25.9792 32.5127Z" fill="#FFC14B"/>
<path d="M39.9314 28.7449C37.6347 28.7449 35.6155 30.2944 35.0211 32.5128C34.8396 33.1908 35.2419 33.8877 35.9199 34.0693C36.5977 34.2511 37.2947 33.8485 37.4763 33.1706C37.7735 32.0614 38.783 31.2866 39.9313 31.2866C41.0794 31.2866 42.0889 32.0614 42.3862 33.1707C42.5383 33.7384 43.0517 34.1129 43.6129 34.1129C43.7217 34.1129 43.8325 34.0988 43.9427 34.0693C44.6208 33.8876 45.023 33.1906 44.8413 32.5127C44.2468 30.2944 42.2278 28.7449 39.9314 28.7449Z" fill="#FFC14B"/>
<path d="M34.512 41.4294C33.8342 41.2478 33.1371 41.6499 32.9554 42.3281C32.6581 43.4374 31.6486 44.2121 30.5005 44.2121C29.3523 44.2121 28.3428 43.4374 28.0456 42.3281C27.864 41.65 27.1671 41.2477 26.4891 41.4294C25.811 41.6111 25.4088 42.3079 25.5905 42.9859C26.185 45.2046 28.204 46.7539 30.5007 46.7539C32.7971 46.7539 34.8163 45.2045 35.4108 42.9859C35.5923 42.308 35.1899 41.6111 34.512 41.4294Z" fill="#FFC14B"/>
</svg>
