<svg width="58" height="58" viewBox="0 0 58 58" fill="none" xmlns="http://www.w3.org/2000/svg">
<g clip-path="url(#clip0_27_1717)">
<path d="M52.2589 11.6726C51.8845 11.1713 51.1748 11.0686 50.6734 11.4429C50.1722 11.8173 50.0693 12.5271 50.4437 13.0284C58.3252 23.5814 57.2335 38.5746 47.9041 47.904C37.4803 58.3277 20.5197 58.3277 10.0961 47.904C-0.327722 37.4802 -0.327722 20.5196 10.0961 10.096C19.436 0.755922 34.4398 -0.32818 44.9959 7.57443C45.4968 7.94939 46.2067 7.84721 46.5817 7.3464C46.9567 6.84558 46.8546 6.13565 46.3537 5.76069C40.8238 1.62105 33.9639 -0.40102 27.0365 0.066039C20.0419 0.537969 13.4568 3.53097 8.49383 8.49382C3.01657 13.9712 0 21.2537 0 28.9999C0 36.7461 3.01657 44.0286 8.49383 49.5061C13.9712 54.9834 21.2537 57.9999 29 57.9999C36.7462 57.9999 44.0287 54.9833 49.5062 49.5061C54.4648 44.5473 57.4575 37.9676 57.9328 30.979C58.4035 24.0583 56.3883 17.2019 52.2589 11.6726Z" fill="#FFC14B"/>
<path d="M49.5189 8.50648L49.4975 8.48495C49.0562 8.04146 48.3389 8.03964 47.8954 8.48076C47.4518 8.92199 47.45 9.63929 47.8912 10.0828L47.9127 10.1044C48.134 10.3269 48.4248 10.4383 48.7157 10.4383C49.0047 10.4383 49.2937 10.3284 49.5147 10.1085C49.9583 9.66727 49.9601 8.94997 49.5189 8.50648Z" fill="#FFC14B"/>
<path d="M29 5.21094C15.8827 5.21094 5.21094 15.8827 5.21094 29C5.21094 42.1173 15.8827 52.7891 29 52.7891C42.1173 52.7891 52.7891 42.1173 52.7891 29C52.7891 15.8827 42.1173 5.21094 29 5.21094ZM29 50.5234C17.1319 50.5234 7.47656 40.8681 7.47656 29C7.47656 17.1319 17.1319 7.47656 29 7.47656C40.8681 7.47656 50.5234 17.1319 50.5234 29C50.5234 40.8681 40.8681 50.5234 29 50.5234Z" fill="#FFC14B"/>
<path d="M28.9998 25.2615C28.3815 25.2615 27.7984 25.4133 27.2841 25.6802L17.8695 16.2656C17.4271 15.8232 16.7098 15.8232 16.2674 16.2656C15.8249 16.708 15.825 17.4253 16.2674 17.8677L25.6814 27.2818C25.4138 27.7966 25.2616 28.3806 25.2616 28.9998C25.2616 30.67 26.3626 32.0876 27.877 32.5655V38.3515C27.877 38.9771 28.3842 39.4843 29.0098 39.4843C29.6355 39.4843 30.1426 38.9771 30.1426 38.3515V32.5587C31.6467 32.0747 32.7381 30.6626 32.7381 28.9998C32.7381 26.9385 31.0611 25.2615 28.9998 25.2615ZM28.9998 30.4724C28.1878 30.4724 27.5272 29.8118 27.5272 28.9998C27.5272 28.1878 28.1878 27.5271 28.9998 27.5271C29.8118 27.5271 30.4725 28.1878 30.4725 28.9998C30.4725 29.8119 29.8118 30.4724 28.9998 30.4724Z" fill="#FFC14B"/>
<path d="M47.5785 27.8884H45.9688C45.3431 27.8884 44.8359 28.3956 44.8359 29.0212C44.8359 29.6469 45.3431 30.1541 45.9688 30.1541H47.5785C48.2041 30.1541 48.7113 29.6469 48.7113 29.0212C48.7113 28.3956 48.2041 27.8884 47.5785 27.8884Z" fill="#FFC14B"/>
<path d="M12.0316 27.8459H10.4219C9.79622 27.8459 9.28906 28.3531 9.28906 28.9788C9.28906 29.6044 9.79622 30.1116 10.4219 30.1116H12.0316C12.6573 30.1116 13.1644 29.6044 13.1644 28.9788C13.1644 28.3531 12.6573 27.8459 12.0316 27.8459Z" fill="#FFC14B"/>
<path d="M29.0215 9.28906C28.3958 9.28906 27.8887 9.79622 27.8887 10.4219V12.0316C27.8887 12.6573 28.3959 13.1644 29.0215 13.1644C29.6471 13.1644 30.1543 12.6573 30.1543 12.0316V10.4219C30.1543 9.79622 29.6471 9.28906 29.0215 9.28906Z" fill="#FFC14B"/>
<path d="M28.9785 44.8354C28.3529 44.8354 27.8457 45.3426 27.8457 45.9683V47.578C27.8457 48.2036 28.3529 48.7108 28.9785 48.7108C29.6042 48.7108 30.1113 48.2036 30.1113 47.578V45.9683C30.1113 45.3426 29.6042 44.8354 28.9785 44.8354Z" fill="#FFC14B"/>
<path d="M13.115 33.9743C13.1147 33.9731 13.1116 33.9637 13.1113 33.9624C12.9231 33.3666 12.2891 33.0395 11.6931 33.2268C11.0969 33.4139 10.7661 34.0526 10.9522 34.6492C10.9529 34.6513 10.957 34.6641 10.9576 34.6663C11.1107 35.1468 11.5535 35.4506 12.0319 35.4506C12.1456 35.4506 12.2614 35.4335 12.3758 35.3974C12.9714 35.2098 13.3009 34.5704 13.115 33.9743Z" fill="#FFC14B"/>
<path d="M22.4355 44.2956C19.2064 42.9078 16.4428 40.4718 14.6538 37.4365C14.336 36.8975 13.6414 36.718 13.1027 37.0358C12.5637 37.3534 12.3843 38.048 12.702 38.5868C14.7339 42.034 17.8729 44.8007 21.5409 46.3772C21.6868 46.4398 21.8384 46.4695 21.9877 46.4695C22.4268 46.4695 22.8447 46.2127 23.029 45.7837C23.2761 45.2089 23.0104 44.5427 22.4355 44.2956Z" fill="#FFC14B"/>
</g>
<defs>
<clipPath id="clip0_27_1717">
<rect width="58" height="58" fill="white"/>
</clipPath>
</defs>
</svg>
