<svg width="60" height="60" viewBox="0 0 60 60" fill="none" xmlns="http://www.w3.org/2000/svg">
<path d="M35.6286 37.1201C35.6283 37.1198 35.628 37.1194 35.6277 37.1192L27.8765 29.368C27.8762 29.3677 27.8759 29.3674 27.8756 29.3671L11.7665 13.2581C11.5817 13.0732 11.3284 12.973 11.0667 12.9842C10.8055 12.9945 10.5604 13.1135 10.3907 13.3124C6.41064 17.9739 4.21875 23.9112 4.21875 30.0305C4.21875 44.2463 15.7842 55.8117 30 55.8117C36.1195 55.8117 42.0569 53.6199 46.7183 49.64C46.9172 49.4703 47.0361 49.2252 47.0464 48.9639C47.0567 48.7026 46.9574 48.449 46.7726 48.2641L35.6286 37.1201ZM13.2543 36.8446V30.9684H18.3907V36.8446H13.2543ZM20.2657 30.9684H26.8252L32.7014 36.8446H20.2657V30.9684ZM30 53.9367C16.8181 53.9367 6.09375 43.2124 6.09375 30.0305C6.09375 24.6958 7.89053 19.5102 11.1733 15.3166L24.9502 29.0934H12.3168C11.799 29.0934 11.3793 29.5132 11.3793 30.0309V37.7821C11.3793 38.2998 11.799 38.7196 12.3168 38.7196H34.5764L44.7141 48.8574C40.5204 52.14 35.3349 53.9367 30 53.9367Z" fill="#FFC14B"/>
<path d="M51.0474 8.98312C45.4254 3.36109 37.9506 0.264893 30 0.264893C22.4743 0.264893 15.2905 3.08197 9.77257 8.19656C9.23257 8.69678 8.70646 9.22153 8.20719 9.7588C3.06581 15.2835 0.234375 22.4828 0.234375 30.0305C0.234375 37.9815 3.33057 45.4565 8.9526 51.0784C14.5746 56.7001 22.0493 59.7961 30 59.7961C37.195 59.7961 44.1403 57.1941 49.5572 52.4689C50.3299 51.7944 51.1288 51.0218 51.834 50.2585C56.9488 44.7402 59.7656 37.5564 59.7656 30.0305C59.7656 22.08 56.6694 14.6053 51.0474 8.98312ZM50.4594 48.9833C49.7991 49.6978 49.05 50.4227 48.3267 51.0541C43.2511 55.4824 36.7426 57.9211 30 57.9211C14.621 57.9211 2.10938 45.4094 2.10938 30.0305C2.10938 22.9584 4.7624 16.2127 9.58008 11.0358C10.048 10.5322 10.5412 10.0406 11.0465 9.57226C16.2173 4.77947 22.9484 2.13989 30 2.13989C45.3789 2.13989 57.8906 14.6516 57.8906 30.0305C57.8906 37.0823 55.2513 43.8133 50.4594 48.9833Z" fill="#FFC14B"/>
<path d="M30.0003 4.24927C23.8975 4.24927 17.9724 6.43085 13.3163 10.3922C13.117 10.5618 12.9976 10.807 12.9871 11.0686C12.9766 11.3301 13.0758 11.584 13.2609 11.7692L32.1857 30.6939L39.9369 38.4451L48.2619 46.7701C48.4381 46.9463 48.6767 47.0447 48.9249 47.0447C48.9373 47.0447 48.9499 47.0444 48.9625 47.0439C49.2241 47.0333 49.4692 46.914 49.6389 46.7146C53.6001 42.0588 55.7816 36.1337 55.7816 30.0305C55.7816 15.8147 44.2162 4.24927 30.0003 4.24927ZM46.746 30.9685V36.8447H44.8805V30.9685H46.746ZM43.0055 36.8447H40.9882L35.112 30.9685H43.0055V36.8447ZM48.8539 44.7103L42.8632 38.7197H47.6835C48.2012 38.7197 48.621 38.2999 48.621 37.7822V30.3643C49.618 28.7439 49.6774 26.4082 48.7532 24.3331C47.9852 22.6086 46.6751 21.3543 45.1393 20.827C45.2071 20.2256 45.1779 19.436 44.8053 18.6447C44.3199 17.6136 43.3939 16.8694 42.0532 16.4328C39.9836 15.759 39.4882 14.932 39.4678 14.6558C39.5084 14.168 39.1637 13.7257 38.6724 13.652C38.1599 13.5739 37.683 13.9279 37.6063 14.44C37.5695 14.6856 37.3648 16.8783 41.4728 18.2156C42.2956 18.4837 42.8442 18.8923 43.1029 19.4305C43.4946 20.2452 43.1527 21.1761 43.1518 21.1786C43.0457 21.4473 43.0695 21.75 43.2162 21.9988C43.3628 22.2477 43.6161 22.4152 43.9025 22.4525C45.2059 22.6225 46.3789 23.6107 47.0405 25.0959C47.6616 26.4906 47.7051 28.0027 47.1841 29.0935H44.9934C45.0149 28.2399 44.8707 27.0684 44.1164 26.0997C43.2695 25.0123 41.9073 24.4609 40.0675 24.4609C38.9312 24.4609 38.1076 24.151 37.5495 23.5136C36.4371 22.2427 36.7141 20.0569 36.7166 20.0378C36.7655 19.6885 36.6181 19.3393 36.329 19.1373C36.0402 18.9357 35.6664 18.9108 35.3549 19.0767C35.2765 19.1164 33.4144 20.0316 31.3734 18.373C30.456 17.6276 30.1627 16.9041 29.879 16.2045C29.4457 15.1357 28.9546 13.9242 26.5432 13.9242C26.0255 13.9242 25.6057 14.344 25.6057 14.8617C25.6057 15.3794 26.0255 15.7992 26.5432 15.7992C27.6915 15.7992 27.769 15.9903 28.1414 16.909C28.4613 17.6981 28.8995 18.7789 30.191 19.8282C31.9586 21.2645 33.6765 21.3564 34.8254 21.1704C34.8892 22.2115 35.1723 23.6376 36.1298 24.7383C37.0521 25.7984 38.3768 26.3359 40.0675 26.3359C41.2947 26.3359 42.1574 26.6417 42.6316 27.2449C43.0716 27.8046 43.1418 28.5515 43.1203 29.0935H33.237L15.3207 11.1772C19.5082 7.91183 24.6817 6.12427 30.0003 6.12427C43.1823 6.12427 53.9066 16.8485 53.9066 30.0305C53.9066 35.3494 52.119 40.523 48.8539 44.7103Z" fill="#FFC14B"/>
</svg>
