<svg width="59" height="59" viewBox="0 0 59 59" fill="none" xmlns="http://www.w3.org/2000/svg">
<path d="M20.7845 33.3736C21.6512 32.5058 22.1266 31.1913 22.1253 29.6753C22.1253 29.1363 22.0641 28.577 21.9429 28.0128C21.2334 24.7106 18.6911 22.125 16.1535 22.125C14.9868 22.125 13.9545 22.6568 13.2463 23.6219C12.6209 24.4729 12.2907 25.5953 12.292 26.8664C12.292 27.4042 12.3532 27.9623 12.4744 28.5278V28.5289C13.1838 31.8311 15.7262 34.4167 18.2638 34.4167C19.2312 34.4167 20.1027 34.0553 20.7845 33.3736ZM14.8775 28.0139C14.7935 27.6178 14.7503 27.2313 14.7503 26.8652C14.7503 26.1317 14.9196 25.4956 15.2281 25.0755C16.2352 23.6926 18.8819 25.4692 19.5398 28.5289C19.6238 28.9238 19.667 29.3092 19.667 29.6764C19.6681 30.5251 19.4414 31.2393 19.0452 31.6354C17.9804 32.6978 15.5066 30.9369 14.8775 28.0139Z" fill="#FFC14B"/>
<path d="M42.8468 22.125C40.3092 22.125 37.7669 24.7106 37.0574 28.0128C36.9362 28.577 36.875 29.1363 36.875 29.6741C36.8738 31.1914 37.3492 32.5058 38.2158 33.3736C38.8976 34.0554 39.769 34.4167 40.7365 34.4167C43.2741 34.4167 45.8164 31.8311 46.5259 28.5289V28.5278C46.6471 27.9624 46.7083 27.4042 46.7083 26.8677C46.7095 25.5953 46.3794 24.473 45.754 23.6219C45.0458 22.6568 44.0135 22.125 42.8468 22.125ZM44.1228 28.0139C43.4938 30.9369 41.0163 32.7013 39.9551 31.6354C39.5589 31.2392 39.3321 30.5251 39.3333 29.6753C39.3333 29.3092 39.3765 28.9238 39.4605 28.5289C39.9598 26.2038 41.6464 24.5833 42.8467 24.5833C43.226 24.5833 43.5297 24.7442 43.7721 25.0755C44.0806 25.4956 44.2499 26.1318 44.2499 26.8664C44.25 27.2314 44.2068 27.6179 44.1228 28.0139Z" fill="#FFC14B"/>
<path d="M40.4199 18.6669V18.6657C40.5039 18.2216 40.5495 17.7906 40.5603 17.3765C40.6011 15.7559 40.1198 14.3443 39.2028 13.4033C38.4934 12.6758 37.5871 12.2917 36.58 12.2917C34.0101 12.2917 31.5025 14.8905 30.8724 18.2095C30.7884 18.6536 30.7427 19.0846 30.7319 19.4987C30.6911 21.1193 31.1724 22.5309 32.0895 23.4719C32.7988 24.1994 33.7052 24.5835 34.7122 24.5835C37.2822 24.5833 39.7898 21.9846 40.4199 18.6669ZM38.102 17.3164C38.0961 17.6034 38.0624 17.901 38.0048 18.2083C37.4419 21.1648 34.9511 22.8897 33.8504 21.7554C33.4062 21.3004 33.1661 20.501 33.1902 19.5587C33.1962 19.2717 33.2298 18.9729 33.2874 18.6667C33.7268 16.3585 35.3749 14.7499 36.58 14.7499C36.9186 14.7499 37.2006 14.8712 37.4419 15.1196C37.886 15.5747 38.126 16.3742 38.102 17.3164Z" fill="#FFC14B"/>
<path d="M29.5 0C13.234 0 0 13.234 0 29.5C0 45.766 13.234 59 29.5 59C45.766 59 59 45.766 59 29.5C59 13.234 45.766 0 29.5 0ZM29.5 56.5417C14.5891 56.5417 2.45829 44.4109 2.45829 29.5C2.45829 22.4861 5.16492 16.1084 9.55996 11.298L19.5666 21.3046C20.2798 22.5569 21.2622 23.5557 22.3663 24.1044L26.2063 27.9443C24.4026 29.0901 23.6447 31.0865 23.1441 32.4697C22.9677 32.9559 22.7492 33.562 22.5979 33.7421C22.0949 34.3483 21.4768 34.91 20.8214 35.5043C19.1469 37.0227 17.2491 38.7441 17.2083 41.5517C17.1879 43.0377 17.6464 44.3005 18.5359 45.2032C19.507 46.1875 20.945 46.7085 22.6928 46.7085C24.6602 46.7085 25.8989 46.0543 26.894 45.5285C27.7462 45.0784 28.4184 44.723 29.4987 44.723C30.5802 44.723 31.2536 45.0783 32.1059 45.5285C33.101 46.0543 34.341 46.7085 36.3071 46.7085C38.0549 46.7085 39.4929 46.1875 40.464 45.2032C40.9794 44.6802 41.3313 44.0249 41.5481 43.2864L47.7018 49.4402C42.8916 53.835 36.5139 56.5417 29.5 56.5417ZM21.5584 15.1197C22.6555 13.9817 25.1486 15.7091 25.7128 18.6656C25.7704 18.9729 25.8041 19.2717 25.8101 19.561C25.834 20.5009 25.594 21.3004 25.1499 21.7553C24.7839 22.1309 24.2624 22.1676 23.7128 21.9747L21.5609 19.8228C21.3165 19.3386 21.1093 18.8073 20.9956 18.2084C20.938 17.9011 20.9043 17.6034 20.8983 17.3142C20.8742 16.3741 21.1143 15.5746 21.5584 15.1197ZM28.019 29.7572L39.2065 40.9447C39.2517 41.1568 39.3301 41.355 39.3333 41.5853C39.3453 42.4112 39.1365 43.0474 38.7128 43.4771C38.0825 44.1158 37.0574 44.2501 36.3072 44.2501C34.9497 44.2501 34.1634 43.8348 33.2535 43.3546C32.286 42.8432 31.1901 42.2647 29.5 42.2647C27.8099 42.2647 26.7127 42.8433 25.7465 43.3546C24.8366 43.8348 24.0503 44.2501 22.6928 44.2501C21.9426 44.2501 20.9175 44.1156 20.2872 43.4771C19.8635 43.0474 19.6546 42.4112 19.6667 41.5866C19.6919 39.8472 20.9799 38.6781 22.4731 37.3253C23.1621 36.7 23.8752 36.0529 24.4897 35.3136C24.9147 34.8022 25.1656 34.1096 25.456 33.3065C26.0727 31.6022 26.6698 30.2859 28.019 29.7572ZM49.44 47.702L41.4722 39.7341C40.8592 37.9454 39.4571 36.6635 38.1785 35.5042C37.5231 34.91 36.905 34.3483 36.402 33.7433C36.2507 33.562 36.0323 32.9559 35.8558 32.4697C35.1211 30.4399 33.8908 27.0417 29.4986 27.0417C29.2601 27.0417 29.0653 27.0876 28.8449 27.1069L25.922 24.184C26.2787 24.0031 26.6152 23.7747 26.9106 23.4717C27.8276 22.5306 28.3089 21.119 28.2681 19.501C28.2573 19.0844 28.2117 18.6536 28.1277 18.2082C27.4975 14.8904 24.99 12.2916 22.42 12.2916C21.4129 12.2916 20.5066 12.6757 19.7973 13.4031C19.0047 14.2163 18.5615 15.3921 18.4755 16.7376L11.298 9.55996C16.1084 5.16503 22.4861 2.45829 29.5 2.45829C44.4109 2.45829 56.5417 14.5891 56.5417 29.5C56.5417 36.5139 53.835 42.8916 49.44 47.702Z" fill="#FFC14B"/>
</svg>
